<?xml version="1.0" encoding="UTF-8"?>
<svg width="24px" height="24px" viewBox="0 0 24 24" version="1.1" xmlns="http://www.w3.org/2000/svg" xmlns:xlink="http://www.w3.org/1999/xlink">
    <!-- Generator: Sketch 53.2 (72643) - https://sketchapp.com -->
    <title>mdi-light:bullhorn</title>
    <desc>Created with Sketch.</desc>
    <g id="ZK-Theme" stroke="none" stroke-width="1" fill="none" fill-rule="evenodd">
        <g id="Drawer-demo-top" transform="translate(-287.000000, -281.000000)" fill="#000000" fill-rule="nonzero">
            <g id="Group-4" transform="translate(287.000000, 281.000000)">
                <g id="mdi-light:bullhorn">
                    <rect id="Rectangle" fill-opacity="0.01" x="0" y="0" width="24" height="24"></rect>
                    <path d="M14,4 L11,7 L3,7 C1.34314575,7 2.02906125e-16,8.34314575 0,10 L0,13 C2.02906125e-16,14.6568542 1.34314575,16 3,16 L3,19 C3,20.1045695 3.8954305,21 5,21 L6,21 C7.1045695,21 8,20.1045695 8,19 L8,16 L11,16 L14,19 L16,19 L16,4 L14,4 Z M14.414,5 L15,5 L15,18 L14.414,18 L11.414,15 L3,15 C1.8954305,15 1,14.1045695 1,13 L1,10 C1,8.8954305 1.8954305,8 3,8 L11.414,8 L14.414,5 Z M18,7 L18,8.008 C19.7222099,8.25690054 21.0002246,9.73289697 21.0002246,11.473 C21.0002246,13.213103 19.7222099,14.6890995 18,14.938 L18,15.945 C20.2790386,15.6918812 22.0032669,13.7655517 22.0032669,11.4725 C22.0032669,9.17944827 20.2790386,7.25311881 18,7 Z M18,10.059 L18,12.887 C18.5990076,12.6749311 18.9993964,12.1084395 18.9993964,11.473 C18.9993964,10.8375605 18.5990076,10.2710689 18,10.059 Z M4,16 L7,16 L7,19 C7,19.5522847 6.55228475,20 6,20 L5,20 C4.44771525,20 4,19.5522847 4,19 L4,16 Z" id="Shape"></path>
                </g>
            </g>
        </g>
    </g>
</svg>