<?xml version="1.0" encoding="UTF-8"?>
<svg width="24px" height="24px" viewBox="0 0 24 24" version="1.1" xmlns="http://www.w3.org/2000/svg" xmlns:xlink="http://www.w3.org/1999/xlink">
    <!-- Generator: Sketch 53.2 (72643) - https://sketchapp.com -->
    <title>mdi-light:calendar</title>
    <desc>Created with Sketch.</desc>
    <g id="ZK-Theme" stroke="none" stroke-width="1" fill="none" fill-rule="evenodd">
        <g id="Drawer-demo-top" transform="translate(-18.000000, -281.000000)" fill="#000000" fill-rule="nonzero">
            <g id="Group-5" transform="translate(18.000000, 281.000000)">
                <g id="mdi-light:calendar">
                    <rect id="Rectangle" fill-opacity="0.01" x="0" y="0" width="24" height="24"></rect>
                    <path d="M7,2 L8,2 C8.55228475,2 9,2.44771525 9,3 L9,4 L14,4 L14,3 C14,2.44771525 14.4477153,2 15,2 L16,2 C16.5522847,2 17,2.44771525 17,3 L17,4 C18.6568542,4 20,5.34314575 20,7 L20,18 C20,19.6568542 18.6568542,21 17,21 L6,21 C4.34314575,21 3,19.6568542 3,18 L3,7 C3,5.34314575 4.34314575,4 6,4 L6,3 C6,2.44771525 6.44771525,2 7,2 Z M15,4 L16,4 L16,3 L15,3 L15,4 Z M8,4 L8,3 L7,3 L7,4 L8,4 Z M6,5 C4.8954305,5 4,5.8954305 4,7 L4,8 L19,8 L19,7 C19,5.8954305 18.1045695,5 17,5 L6,5 Z M4,18 C4,19.1045695 4.8954305,20 6,20 L17,20 C18.1045695,20 19,19.1045695 19,18 L19,9 L4,9 L4,18 Z M12,13 L17,13 L17,18 L12,18 L12,13 Z M13,14 L13,17 L16,17 L16,14 L13,14 Z" id="Shape"></path>
                </g>
            </g>
        </g>
    </g>
</svg>