<?xml version="1.0" encoding="UTF-8"?>
<svg width="24px" height="24px" viewBox="0 0 24 24" version="1.1" xmlns="http://www.w3.org/2000/svg" xmlns:xlink="http://www.w3.org/1999/xlink">
    <!-- Generator: Sketch 53.2 (72643) - https://sketchapp.com -->
    <title>mdi-light:camera</title>
    <desc>Created with Sketch.</desc>
    <g id="ZK-Theme" stroke="none" stroke-width="1" fill="none" fill-rule="evenodd">
        <g id="Drawer-demo-top" transform="translate(-1094.000000, -242.000000)" fill="#000000" fill-rule="nonzero">
            <g id="Group-6" transform="translate(1094.000000, 242.000000)">
                <g id="mdi-light:camera">
                    <rect id="Rectangle" fill-opacity="0.01" x="0" y="0" width="24" height="24"></rect>
                    <path d="M11.5,8 C13.9852814,8 16,10.0147186 16,12.5 C16,14.9852814 13.9852814,17 11.5,17 C9.01471863,17 7,14.9852814 7,12.5 C7,10.0147186 9.01471863,8 11.5,8 Z M11.5,9 C9.56700338,9 8,10.5670034 8,12.5 C8,14.4329966 9.56700338,16 11.5,16 C13.4329966,16 15,14.4329966 15,12.5 C15,10.5670034 13.4329966,9 11.5,9 Z M5,5 L7,5 L9,3 L14,3 L16,5 L18,5 C19.6568542,5 21,6.34314575 21,8 L21,17 C21,18.6568542 19.6568542,20 18,20 L5,20 C3.34314575,20 2,18.6568542 2,17 L2,8 C2,6.34314575 3.34314575,5 5,5 Z M9.414,4 L7.414,6 L5,6 C3.8954305,6 3,6.8954305 3,8 L3,17 C3,18.1045695 3.8954305,19 5,19 L18,19 C19.1045695,19 20,18.1045695 20,17 L20,8 C20,6.8954305 19.1045695,6 18,6 L15.586,6 L13.586,4 L9.414,4 Z" id="Shape"></path>
                </g>
            </g>
        </g>
    </g>
</svg>