<?xml version="1.0" encoding="UTF-8"?>
<svg width="24px" height="24px" viewBox="0 0 24 24" version="1.1" xmlns="http://www.w3.org/2000/svg" xmlns:xlink="http://www.w3.org/1999/xlink">
    <!-- Generator: Sketch 53.2 (72643) - https://sketchapp.com -->
    <title>mdi-light:cart</title>
    <desc>Created with Sketch.</desc>
    <g id="ZK-Theme" stroke="none" stroke-width="1" fill="none" fill-rule="evenodd">
        <g id="Drawer-demo-top" transform="translate(-825.000000, -242.000000)" fill="#000000" fill-rule="nonzero">
            <g id="Group-7" transform="translate(825.000000, 242.000000)">
                <g id="mdi-light:cart">
                    <path d="M19,18 C20.1045695,18 21,18.8954305 21,20 C21,21.1045695 20.1045695,22 19,22 C17.8954305,22 17,21.1045695 17,20 C17,18.8954305 17.8954305,18 19,18 Z M19,19 C18.4477153,19 18,19.4477153 18,20 C18,20.5522847 18.4477153,21 19,21 C19.5522847,21 20,20.5522847 20,20 C20,19.4477153 19.5522847,19 19,19 Z M10,18 C11.1045695,18 12,18.8954305 12,20 C12,21.1045695 11.1045695,22 10,22 C8.8954305,22 8,21.1045695 8,20 C8,18.8954305 8.8954305,18 10,18 Z M10,19 C9.44771525,19 9,19.4477153 9,20 C9,20.5522847 9.44771525,21 10,21 C10.5522847,21 11,20.5522847 11,20 C11,19.4477153 10.5522847,19 10,19 Z M21,6 L7.273,6 L9.82,12 L18,12 C18.3153357,12.0004816 18.6121946,11.85131 18.8,11.598 L21.8,7.598 L21.801,7.598 C22.0271833,7.29484781 22.0629726,6.89002378 21.8934832,6.55189141 C21.7239938,6.21375904 21.3782329,6.00018761 21,6 Z M18,13 L9.866,13 L9.1,14.56 L9,15 C9,15.5522847 9.44771525,16 10,16 L21,16 L21,17 L10,17 C9.2914496,17.0003443 8.63560432,16.6257675 8.27590593,16.015308 C7.91620755,15.4048484 7.90635293,14.6496374 8.25,14.03 L8.97,12.556 L5.338,4 L4,4 L4,3 L6,3 L6.849,5 L21,5 C21.7712361,5.00007337 22.4737096,5.4435861 22.8053977,6.13985335 C23.1370857,6.8361206 23.0388787,7.66106184 22.553,8.26 L19.639,12.146 C19.2650697,12.6814226 18.6530706,13.0003045 18,13 Z" id="Shape"></path>
                    <rect id="Rectangle" fill-opacity="0.01" x="0" y="0" width="24" height="24"></rect>
                </g>
            </g>
        </g>
    </g>
</svg>