<?xml version="1.0" encoding="UTF-8"?>
<svg width="24px" height="24px" viewBox="0 0 24 24" version="1.1" xmlns="http://www.w3.org/2000/svg" xmlns:xlink="http://www.w3.org/1999/xlink">
    <!-- Generator: Sketch 53.2 (72643) - https://sketchapp.com -->
    <title>mdi-light:clock</title>
    <desc>Created with Sketch.</desc>
    <g id="ZK-Theme" stroke="none" stroke-width="1" fill="none" fill-rule="evenodd">
        <g id="Drawer-demo-top" transform="translate(-557.000000, -281.000000)" fill="#000000" fill-rule="nonzero">
            <g id="Group-3" transform="translate(557.000000, 281.000000)">
                <g id="mdi-light:clock">
                    <rect id="Rectangle" fill-opacity="0.01" x="0" y="0" width="24" height="24"></rect>
                    <path d="M11.5,3 C16.7467051,3 21,7.25329488 21,12.5 C21,17.7467051 16.7467051,22 11.5,22 C6.25329488,22 2,17.7467051 2,12.5 C2,7.25329488 6.25329488,3 11.5,3 Z M11.5,4 C6.80557963,4 3,7.80557963 3,12.5 C3,17.1944204 6.80557963,21 11.5,21 C16.1944204,21 20,17.1944204 20,12.5 C20,7.80557963 16.1944204,4 11.5,4 L11.5,4 Z M11,7 L12,7 L12,12.423 L16.696,15.134 L16.196,16 L11,13 L11,7 Z" id="Shape"></path>
                </g>
            </g>
        </g>
    </g>
</svg>