<?xml version="1.0" encoding="UTF-8"?>
<svg width="24px" height="24px" viewBox="0 0 24 24" version="1.1" xmlns="http://www.w3.org/2000/svg" xmlns:xlink="http://www.w3.org/1999/xlink">
    <!-- Generator: Sketch 53.2 (72643) - https://sketchapp.com -->
    <title>mdi-light:cloud-download</title>
    <desc>Created with Sketch.</desc>
    <g id="ZK-Theme" stroke="none" stroke-width="1" fill="none" fill-rule="evenodd">
        <g id="Drawer-demo-top" transform="translate(-288.000000, -242.000000)" fill="#000000" fill-rule="nonzero">
            <g id="Group-9" transform="translate(287.000000, 242.000000)">
                <g id="mdi-light:cloud-download">
                    <rect id="Rectangle" fill-opacity="0.01" x="1" y="0" width="24" height="24"></rect>
                    <path d="M6.5,20 C3.46243391,20.0005522 0.999552367,17.5385661 0.999000082,14.501 C0.998447797,11.4634339 3.46043391,9.00055233 6.498,9 C7.65725187,6.22253605 10.5711523,4.60366848 13.54182,5.08668453 C16.5124877,5.56970057 18.7634051,8.0283423 18.983,11.03 L19.5,11 C21.9852814,11 24,13.0147186 24,15.5 C24,17.9852814 21.9852814,20 19.5,20 L6.5,20 Z M6.5,10 C4.01471863,10 2,12.0147186 2,14.5 C2,16.9852814 4.01471863,19 6.5,19 L19.5,19 C20.9455997,18.9988581 22.2417613,18.1090885 22.7623795,16.7604905 C23.2829977,15.4118925 22.9209409,13.8819776 21.8510991,12.9097645 C20.7812573,11.9375514 19.22378,11.7231 17.931,12.37 L18,11.5 C18.0032498,8.74205043 15.963406,6.40813408 13.2298446,6.04215856 C10.4962831,5.67618303 7.91434218,7.39132418 7.192,10.053 L6.5,10 Z M13,10 L13,15.25 L15.25,13 L16,13.664 L12.5,17.164 L9,13.664 L9.75,13 L12,15.25 L12,10 L13,10 Z" id="Shape"></path>
                </g>
            </g>
        </g>
    </g>
</svg>