<?xml version="1.0" encoding="UTF-8"?>
<svg width="24px" height="24px" viewBox="0 0 24 24" version="1.1" xmlns="http://www.w3.org/2000/svg" xmlns:xlink="http://www.w3.org/1999/xlink">
    <!-- Generator: Sketch 53.2 (72643) - https://sketchapp.com -->
    <title>mdi-light:cog</title>
    <desc>Created with Sketch.</desc>
    <g id="ZK-Theme" stroke="none" stroke-width="1" fill="none" fill-rule="evenodd">
        <g id="Drawer-demo-top" transform="translate(-825.000000, -281.000000)" fill="#000000" fill-rule="nonzero">
            <g id="Group-2" transform="translate(825.000000, 281.000000)">
                <g id="mdi-light:cog">
                    <rect id="Rectangle" fill-opacity="0.01" x="0" y="0" width="24" height="24"></rect>
                    <path d="M19.588,15.492 L17.774,14.202 C18.0786605,13.0817871 18.0769337,11.9003176 17.769,10.781 L19.589,9.507 L18.136,6.993 L16.112,7.919 C15.2939174,7.09502362 14.2695835,6.50584167 13.146,6.213 L12.953,4 L10.047,4 L9.854,6.213 C8.73064859,6.50624469 7.70665659,7.09577397 6.889,7.92 L4.864,6.994 L3.412,9.508 L5.232,10.782 C4.92392115,11.9009133 4.92184904,13.0820126 5.226,14.202 L3.412,15.492 L4.864,17.994 L6.889,17.067 C7.70677461,17.8908617 8.73075583,18.4800394 9.854,18.773 L10.047,20.986 L12.953,20.986 L13.146,18.773 C14.2692254,18.4799937 15.2931953,17.8908225 16.111,17.067 L18.136,17.994 L19.589,15.493 L19.588,15.492 Z M13.505,2.985 C13.7724041,2.98471694 13.9926996,3.1948788 14.005,3.462 L14.183,5.497 C14.9222241,5.77870766 15.6118625,6.17635522 16.226,6.675 L18.076,5.812 C18.3133425,5.68988194 18.6047548,5.7757209 18.738,6.007 L20.743,9.477 C20.8768186,9.70804449 20.8054953,10.0034635 20.581,10.148 L18.907,11.32 C19.035,12.118 19.031,12.913 18.908,13.679 L20.581,14.849 C20.8060781,14.993592 20.8774689,15.2897315 20.743,15.521 L18.738,18.978 C18.6047548,19.2092791 18.3133425,19.2951181 18.076,19.173 L16.226,18.31 C15.624,18.8 14.938,19.2 14.183,19.489 L14.005,21.524 C13.9921825,21.7907274 13.772035,22.0003078 13.505,22 L9.495,22 C9.22796501,22.0003078 9.00781751,21.7907274 8.995,21.524 L8.817,19.489 C8.0777332,19.2069392 7.38809819,18.808956 6.774,18.31 L4.924,19.173 C4.68667043,19.2959334 4.39462541,19.2104783 4.261,18.979 L2.257,15.52 C2.12318144,15.2889555 2.19450466,14.9935365 2.419,14.849 L4.092,13.678 C3.96671595,12.8966569 3.96671595,12.1003431 4.092,11.319 L2.42,10.148 C2.19608585,10.0035201 2.12482993,9.70881969 2.258,9.478 L4.26,6.007 C4.39328868,5.77515386 4.68541384,5.6892347 4.923,5.812 L6.773,6.675 C7.38713753,6.17635522 8.07677587,5.77870766 8.816,5.497 L8.994,3.462 C9.00630045,3.1948788 9.22659589,2.98471694 9.494,2.985 L13.504,2.985 L13.505,2.985 Z M11.5,9 C13.4329966,9 15,10.5670034 15,12.5 C15,14.4329966 13.4329966,16 11.5,16 C9.56700338,16 8,14.4329966 8,12.5 C8,10.5670034 9.56700338,9 11.5,9 Z M11.5,10 C10.1192881,10 9,11.1192881 9,12.5 C9,13.8807119 10.1192881,15 11.5,15 C12.8807119,15 14,13.8807119 14,12.5 C14,11.1192881 12.8807119,10 11.5,10 L11.5,10 Z" id="Shape"></path>
                </g>
            </g>
        </g>
    </g>
</svg>