<?xml version="1.0" encoding="UTF-8"?>
<svg width="24px" height="24px" viewBox="0 0 24 24" version="1.1" xmlns="http://www.w3.org/2000/svg" xmlns:xlink="http://www.w3.org/1999/xlink">
    <!-- Generator: Sketch 53.2 (72643) - https://sketchapp.com -->
    <title>mdi-light:flask</title>
    <desc>Created with Sketch.</desc>
    <g id="ZK-Theme" stroke="none" stroke-width="1" fill="none" fill-rule="evenodd">
        <g id="Drawer-demo-top" transform="translate(-1095.000000, -281.000000)" fill="#000000" fill-rule="nonzero">
            <g id="Group" transform="translate(1095.000000, 281.000000)">
                <g id="mdi-light:flask">
                    <rect id="Rectangle" fill-opacity="0.01" x="0" y="0" width="24" height="24"></rect>
                    <path d="M13,6 L14,6 L14,5 C14,4.44771525 13.5522847,4 13,4 L10,4 C9.44771525,4 9,4.44771525 9,5 L9,6 L10,6 L10,8.072 L4.285,17.97 C3.91375436,18.5879186 3.9037612,19.3578092 4.25884336,19.9851555 C4.61392551,20.6125018 5.27913477,21.0002234 6,21 L17,21 C17.7208652,21.0002234 18.3860745,20.6125018 18.7411566,19.9851555 C19.0962388,19.3578092 19.0862456,18.5879186 18.715,17.97 L13,8.072 L13,6 Z M6,22 C4.89973842,22.0002538 3.88761655,21.3981941 3.36271371,20.4312129 C2.83781087,19.4642317 2.88435739,18.287499 3.484,17.365 L9,7.811 L9,7 C8.44771525,7 8,6.55228475 8,6 L8,5 C8,3.8954305 8.8954305,3 10,3 L13,3 C14.1045695,3 15,3.8954305 15,5 L15,6 C15,6.55228475 14.5522847,7 14,7 L14,7.811 L19.516,17.365 C20.1156426,18.287499 20.1621891,19.4642317 19.6372863,20.4312129 C19.1123834,21.3981941 18.1002616,22.0002538 17,22 L6,22 L6,22 Z M12.294,15.292 L13.92,13.666 L17,19 L6,19 L9.66,12.66 L12.294,15.292 Z M12.294,16.706 L9.875,14.288 L7.732,18 L15.268,18 L13.706,15.294 L12.294,16.706 Z M12,10 C12.5522847,10 13,10.4477153 13,11 C13,11.5522847 12.5522847,12 12,12 C11.4477153,12 11,11.5522847 11,11 C11,10.4477153 11.4477153,10 12,10 Z" id="Shape"></path>
                </g>
            </g>
        </g>
    </g>
</svg>