<?xml version="1.0" encoding="UTF-8"?>
<svg width="24px" height="24px" viewBox="0 0 24 24" version="1.1" xmlns="http://www.w3.org/2000/svg" xmlns:xlink="http://www.w3.org/1999/xlink">
    <!-- Generator: Sketch 53.2 (72643) - https://sketchapp.com -->
    <title>mdi-light:lightbulb-on</title>
    <desc>Created with Sketch.</desc>
    <g id="ZK-Theme" stroke="none" stroke-width="1" fill="none" fill-rule="evenodd">
        <g id="Drawer-demo-top" transform="translate(-18.000000, -242.000000)" fill="#000000" fill-rule="nonzero">
            <g id="Group-10" transform="translate(18.000000, 242.000000)">
                <g id="mdi-light:lightbulb-on">
                    <rect id="Rectangle" fill-opacity="0.01" x="0" y="0" width="24" height="24"></rect>
                    <path d="M14,20 C14,21.1045695 13.1045695,22 12,22 L11,22 C9.8954305,22 9,21.1045695 9,20 L10,20 C10,20.5522847 10.4477153,21 11,21 L12,21 C12.5522847,21 13,20.5522847 13,20 L14,20 Z M15,17 C15,18.1045695 14.1045695,19 13,19 L10,19 C8.8954305,19 8,18.1045695 8,17 L8,14.978 C5.56671418,13.4231069 4.45096991,10.4493245 5.26093091,7.67758577 C6.07089191,4.90584702 8.61234134,3.00077442 11.5,3.00077442 C14.3876587,3.00077442 16.9291081,4.90584702 17.7390691,7.67758577 C18.5490301,10.4493245 17.4332858,13.4231069 15,14.978 L15,17 L15,17 Z M9,17 C9,17.5522847 9.44771525,18 10,18 L13,18 C13.5522847,18 14,17.5522847 14,17 L14,14.4 C16.2645209,13.2443915 17.4419015,10.687314 16.8476344,8.21540533 C16.2533673,5.74349665 14.0423387,4.00102051 11.5,4.00102051 C8.95766133,4.00102051 6.74663274,5.74349665 6.15236561,8.21540533 C5.55809848,10.687314 6.73547909,13.2443915 9,14.4 L9,17 Z M8.129,10.121 L10.5,7.75 L12.5,9.75 L14.25,8 L14.957,8.707 L12.5,11.164 L10.5,9.164 L8.836,10.828 L8.129,10.121 Z" id="Shape"></path>
                </g>
            </g>
        </g>
    </g>
</svg>